# xmcd
#
# Track frame offsets:
#	150
#	11721
#	26406
#	39792
#	55521
#	72620
#	90199
#	106479
#	120203
#	134682
#	150902
#	167685
#	185653
#	200432
#	214086
#	231912
#	247667
#	264472
#
# Disc length: 3747
#
# Revision: 3
# Processed by: cddbd v1.5.1PL0 Copyright (c) Steve Scherf et al.
# Submitted via: FreeRIP 2.52 
# Normalized: r2:DSETVAR1,TDELIM( - )
#
DISCID=e20ea112
DTITLE=Various Artist - Promo Only Country Radio September 2000
DYEAR=2000
DGENRE=Country
TTITLE0=Alan Jackson - www Memory
TTITLE1=Mark Wills - I Want To Know (Everything There Is To Know About You)
TTITLE2=Montgomery Gentry and Charlie Daniels - All Night Long
TTITLE3=Reba McEntire - We're So Good Together
TTITLE4=Lonestar - Tell Her
TTITLE5=Billy Gilman - Oklahoma
TTITLE6=Chalee Tennison - Making Up With You
TTITLE7=Mark Chestnuttt - Lost In The Feeling
TTITLE8=Andy Griggs - You Make Me That Way
TTITLE9=Don Henley - For Me Wedding
TTITLE10=John Anderson - Nobody's Got It All
TTITLE11=SheDaisy - Lucky For You(Tonight I'm Just Me)
TTITLE12=Marshall Dyllon - Live It Up
TTITLE13=Gary Allan - Right Where I Need To Be
TTITLE14=Carolyn Dawn Johnson - Georgia
TTITLE15=Houston Marchman and The Contraband - Witchita Falls
TTITLE16=Cledus T Judd - My Cellmate Thinks I'm Sexy
TTITLE17=Cherie - You Ain't Nothing
EXTD=
EXTT0=
EXTT1=
EXTT2=
EXTT3=
EXTT4=
EXTT5=
EXTT6=
EXTT7=
EXTT8=
EXTT9=
EXTT10=
EXTT11=
EXTT12=
EXTT13=
EXTT14=
EXTT15=
EXTT16=
EXTT17=
PLAYORDER=
